# xmcd CD database file
#
# Track frame offsets:
#	150
#	9630
#	25660
#	37570
#	46525
#	63307
#	72147
#	86862
#	101610
#	116002
#	155460
#	167287
#	180075
#	187967
#	200580
#	215805
#	229942
#	244597
#	254359
#	268607
#	283977
#	306907
#
# Disc length: 4215 seconds
#
# Revision: 1
# Processed by: cddbd v1.5.1PL2 Copyright (c) Steve Scherf et al.
# Submitted via: CDex 1.51
#
DISCID=23107516
DTITLE=Various Artist - The Big Band Music
DYEAR=1900
DGENRE=Jazz
TTITLE0=Yo soy Sarandi
TTITLE1=Glenn Miller - In the mood
TTITLE2=Les Brown - Sentimental Journey
TTITLE3=Tommy Dorsey - Opus one
TTITLE4=Duke Ellington - Take the A Train
TTITLE5=Jimmy Dorsey - Contrasts
TTITLE6=Artie Shaw - Begin the bguine
TTITLE7=Woody Herman - At the woodchopper
TTITLE8=Harry James - You made me love you
TTITLE9=Benny Goodman - Sing Sing Sing
TTITLE10=Chick Webb - Sing me a swing song
TTITLE11=Sammy Kaye - Daddy
TTITLE12=Count Basie - Lady be good
TTITLE13=Jimmie Luceford - Jeep Rhythm
TTITLE14=Glenn Miller - Moonlight serenade
TTITLE15=Tommy Dorsey - Song of India
TTITLE16=Artie Shaw - What is this thing called love
TTITLE17=Les Brown - September Song
TTITLE18=Benny Goodman - King Porter Stomp
TTITLE19=Charlie Barnett - Cherokee
TTITLE20=Charlie Spivak - Star Dust
TTITLE21=Yo soy Sarandi
EXTD=
EXTT0=
EXTT1=
EXTT2=
EXTT3=
EXTT4=
EXTT5=
EXTT6=
EXTT7=
EXTT8=
EXTT9=
EXTT10=
EXTT11=
EXTT12=
EXTT13=
EXTT14=
EXTT15=
EXTT16=
EXTT17=
EXTT18=
EXTT19=
EXTT20=
EXTT21=
PLAYORDER=
